<?xml version="1.0" encoding="utf-8"?>
<!-- Generator: Adobe Illustrator 19.2.1, SVG Export Plug-In . SVG Version: 6.00 Build 0)  -->
<svg version="1.1" id="图层_1" xmlns="http://www.w3.org/2000/svg" xmlns:xlink="http://www.w3.org/1999/xlink" x="0px" y="0px"
	 viewBox="0 0 150 50" enable-background="new 0 0 150 50" xml:space="preserve">
<path fill="#424242" d="M20.2,11.2v25.4h12.9v1H17.3V11.2H20.2z M55,37.6h-2.9V16.8c0-1.1-0.3-2-0.9-2.8c-0.6-0.7-1.3-1.3-2.2-1.7
	s-1.8-0.5-2.9-0.5c-1,0-2,0.2-2.9,0.5c-0.9,0.4-1.6,0.9-2.2,1.7c-0.6,0.7-0.9,1.7-0.9,2.8v20.8h-2.9V16.8c0-1.3,0.4-2.4,1.3-3.3
	c0.9-0.9,2-1.5,3.3-2c1.3-0.4,2.7-0.7,4.3-0.7c1.5,0,3,0.2,4.3,0.7c1.3,0.4,2.4,1.1,3.3,2c0.9,0.9,1.3,2,1.3,3.3L55,37.6L55,37.6z
	 M60.8,28.7c0.4-0.6,0.9-1.2,1.6-1.7c0.6-0.5,1.4-0.9,2.2-1.2c0.8-0.3,1.7-0.6,2.6-0.9c-0.9-0.3-1.8-0.6-2.6-0.9
	c-0.8-0.3-1.6-0.7-2.2-1.1c-0.6-0.5-1.2-1-1.6-1.6c-0.4-0.6-0.6-1.4-0.6-2.4v-7.7h2.9v7.7c0,0.8,0.2,1.4,0.5,2
	c0.3,0.5,0.7,1,1.3,1.4c0.5,0.4,1.2,0.8,1.9,1.1c0.7,0.3,1.5,0.6,2.3,0.9c0.8-0.3,1.5-0.6,2.3-0.9c0.7-0.3,1.4-0.7,1.9-1.1
	s1-0.9,1.3-1.4s0.5-1.2,0.5-2v-7.7H78v7.7c0,0.9-0.2,1.7-0.6,2.4c-0.4,0.6-0.9,1.2-1.5,1.6c-0.6,0.5-1.4,0.8-2.2,1.1
	c-0.8,0.3-1.7,0.6-2.6,0.9c0.9,0.3,1.7,0.6,2.6,0.9c0.8,0.3,1.6,0.7,2.2,1.2s1.1,1,1.5,1.7c0.4,0.6,0.6,1.4,0.6,2.3v6.6h-3V31
	c0-0.7-0.2-1.4-0.5-2s-0.7-1.1-1.3-1.5c-0.5-0.4-1.2-0.8-1.9-1.1c-0.7-0.3-1.5-0.6-2.3-0.9c-0.8,0.3-1.6,0.6-2.3,0.9
	c-0.7,0.3-1.4,0.7-1.9,1.1s-1,0.9-1.3,1.5S63,30.2,63,31v6.6h-2.9V31C60.2,30.1,60.4,29.3,60.8,28.7z M87.3,37.6H84v-3.2h3.2v3.2
	H87.3z M104.3,20.1c0-0.9-0.2-1.7-0.7-2.3c-0.5-0.6-1.1-1.1-1.9-1.4s-1.6-0.5-2.4-0.5c-0.9,0-1.7,0.2-2.4,0.5
	c-0.8,0.3-1.4,0.8-1.9,1.4s-0.7,1.4-0.7,2.3V33c0,0.9,0.2,1.7,0.7,2.3s1.1,1.1,1.9,1.4c0.8,0.3,1.6,0.5,2.4,0.5
	c0.9,0,1.7-0.2,2.4-0.5c0.8-0.3,1.4-0.8,1.9-1.4c0.5-0.6,0.7-1.4,0.7-2.3h2.4c0,1.1-0.4,2.1-1.1,2.8s-1.7,1.3-2.8,1.7
	s-2.3,0.6-3.6,0.6c-1.3,0-2.5-0.2-3.6-0.6s-2-0.9-2.8-1.7s-1.1-1.7-1.1-2.8V20.1c0-1.1,0.4-2.1,1.1-2.8c0.7-0.7,1.7-1.3,2.8-1.7
	c1.1-0.4,2.3-0.6,3.6-0.6c1.3,0,2.5,0.2,3.6,0.6s2,0.9,2.8,1.7c0.7,0.7,1.1,1.7,1.1,2.8H104.3z M113.6,37.6h-2.4V18.9
	c0-0.9,0.4-1.6,1.1-2.3c0.7-0.6,1.6-1.1,2.7-1.3s2.2-0.3,3.3-0.1s2.1,0.6,2.9,1.3c0.8-0.7,1.8-1.1,2.9-1.3s2.2-0.1,3.3,0.1
	c1,0.3,1.9,0.7,2.7,1.3c0.7,0.6,1.1,1.4,1.1,2.3h-0.1v18.7h-2.4V18.9c0-1-0.3-1.7-1-2.2s-1.4-0.7-2.2-0.7c-0.8,0-1.5,0.2-2.2,0.7
	s-1,1.2-1,2.2h-0.1v18.7h-2.4V18.9c0-1-0.3-1.7-1-2.2s-1.4-0.7-2.2-0.7c-0.8,0-1.5,0.2-2.2,0.7s-1,1.2-1,2.2v18.7H113.6z"/>
</svg>
