<svg xmlns="http://www.w3.org/2000/svg" width="127.99" height="128" viewBox="0 0 127.99 128"><path d="M127.65,63.15a64,64,0,0,0-64-64h0a64,64,0,0,0,0,128h0A64,64,0,0,0,127.65,63.15Z" transform="translate(0.33 0.85)" style="fill: #bdbdbd"/><path d="M120.74,63.15A57.08,57.08,0,0,0,63.67,6.07h0a57.09,57.09,0,0,0,0,114.17h0A57.09,57.09,0,0,0,120.74,63.15Z" transform="translate(0.33 0.85)" style="fill: #e0e0e0"/><path d="M103.11,63.81A39.46,39.46,0,0,0,63.66,24.35h0a39.45,39.45,0,0,0,0,78.91h0A39.46,39.46,0,0,0,103.11,63.81Z" transform="translate(0.33 0.85)" style="fill: #bdbdbd"/><path d="M63.69,45.25h0L48.83,49.5v7.72a42.38,42.38,0,0,0,.36,7.16,26.39,26.39,0,0,0,2.66,7.76A25.09,25.09,0,0,0,63.68,83.49h0A25.09,25.09,0,0,0,75.52,72.14a26.44,26.44,0,0,0,2.66-7.76,42.5,42.5,0,0,0,.37-7.16V49.5Z" transform="translate(0.33 0.85)" style="fill: #e0e0e0"/><path d="M102.27,95.44a2.84,2.84,0,0,1-1-1.86,3.12,3.12,0,0,1,.51-2,2.83,2.83,0,0,1,3.85-.62,2.76,2.76,0,0,1,.63,4,2.56,2.56,0,0,1-1.91,1.14A2.72,2.72,0,0,1,102.27,95.44Z" transform="translate(0.33 0.85)" style="fill: #bdbdbd"/><path d="M76,112a2.86,2.86,0,0,1,1.85-3.45,2.92,2.92,0,0,1,3.48,1.76,2.69,2.69,0,0,1-1.81,3.57A2.73,2.73,0,0,1,76,112Z" transform="translate(0.33 0.85)" style="fill: #bdbdbd"/><path d="M43,110.23a2.86,2.86,0,0,1,1.85-3.45,2.92,2.92,0,0,1,3.48,1.76,2.69,2.69,0,0,1-1.81,3.57A2.73,2.73,0,0,1,43,110.23Z" transform="translate(0.33 0.85)" style="fill: #bdbdbd"/><path d="M82.33,16.57a2.89,2.89,0,0,1-1.46,1.53,2.7,2.7,0,0,1-2.07.18A2.92,2.92,0,0,1,77,14.76,2.69,2.69,0,0,1,80.58,13a2.89,2.89,0,0,1,1.69,1.42A2.69,2.69,0,0,1,82.33,16.57Z" transform="translate(0.33 0.85)" style="fill: #bdbdbd"/><path d="M106.18,36.48a2.8,2.8,0,1,1,.75-4A2.81,2.81,0,0,1,106.18,36.48Z" transform="translate(0.33 0.85)" style="fill: #bdbdbd"/><path d="M113.85,66.6a2.8,2.8,0,0,1,0-5.59A2.8,2.8,0,1,1,113.85,66.6Z" transform="translate(0.33 0.85)" style="fill: #bdbdbd"/><path d="M21.14,90.05a2.8,2.8,0,1,1-.75,4A2.81,2.81,0,0,1,21.14,90.05Z" transform="translate(0.33 0.85)" style="fill: #bdbdbd"/><path d="M13.47,59.93a2.8,2.8,0,0,1,0,5.59A2.8,2.8,0,1,1,13.47,59.93Z" transform="translate(0.33 0.85)" style="fill: #bdbdbd"/><path d="M25,31.1a2.84,2.84,0,0,1,1,1.86,3.12,3.12,0,0,1-.51,2,2.83,2.83,0,0,1-3.85.62,2.76,2.76,0,0,1-.63-4A2.56,2.56,0,0,1,23,30.48,2.72,2.72,0,0,1,25,31.1Z" transform="translate(0.33 0.85)" style="fill: #bdbdbd"/><path d="M51.33,14.51A2.87,2.87,0,0,1,49.48,18,2.92,2.92,0,0,1,46,16.2a2.69,2.69,0,0,1,1.81-3.57A2.73,2.73,0,0,1,51.33,14.51Z" transform="translate(0.33 0.85)" style="fill: #bdbdbd"/></svg>